<?xml version="1.0" standalone="no"?>
<!DOCTYPE svg PUBLIC "-//W3C//DTD SVG 20010904//EN"
 "http://www.w3.org/TR/2001/REC-SVG-20010904/DTD/svg10.dtd">
<svg version="1.0" xmlns="http://www.w3.org/2000/svg"
 width="604.000000pt" height="604.000000pt" viewBox="0 0 604.000000 604.000000"
 preserveAspectRatio="xMidYMid meet">
<metadata>
Created by potrace 1.11, written by Peter Selinger 2001-2013
</metadata>
<g transform="translate(0.000000,604.000000) scale(0.100000,-0.100000)"
fill="#000000" stroke="none">
<path d="M5087 4184 c-13 -13 -7 -23 21 -36 15 -8 26 -21 26 -31 -1 -9 2 -14
7 -11 5 3 9 -6 9 -19 0 -28 -34 -95 -81 -160 -19 -25 -43 -61 -55 -79 -58 -91
-181 -259 -225 -307 -28 -29 -61 -70 -74 -90 -20 -32 -117 -155 -134 -171 -24
-22 -141 -160 -141 -166 0 -5 -22 -34 -50 -64 -27 -30 -59 -76 -71 -102 -29
-62 -139 -134 -239 -157 -52 -12 -72 -5 -68 22 2 11 -4 22 -12 24 -13 4 -13 3
0 -7 13 -10 13 -11 0 -7 -10 2 -14 15 -14 38 3 50 3 51 17 43 8 -5 8 -2 -2 9
-7 9 -10 17 -5 17 5 0 2 6 -7 13 -16 12 -19 67 -5 97 9 22 0 65 -13 62 -9 -2
-9 4 0 20 7 13 12 24 11 26 -5 7 8 6 15 -2 4 -5 3 -6 -3 -3 -7 4 -11 -2 -10
-15 0 -12 7 -23 14 -24 7 -1 8 0 2 3 -5 2 -10 9 -10 14 0 6 4 8 8 5 4 -2 8 6
8 19 0 13 -3 22 -7 19 -9 -5 -39 23 -39 37 0 5 5 9 10 9 6 0 10 4 10 10 0 5
-6 7 -14 4 -18 -7 -41 30 -45 70 -2 26 -92 40 -160 25 -51 -11 -166 -67 -207
-100 -7 -6 -22 -12 -34 -14 -18 -3 -20 -2 -10 10 7 8 9 15 5 15 -4 0 -2 6 4
13 6 8 8 17 4 20 -3 4 -1 7 6 7 7 0 10 -10 7 -25 -3 -14 0 -25 5 -25 5 0 9 6
8 13 -3 27 1 38 14 31 8 -5 8 -3 -2 9 -7 9 -17 15 -21 12 -4 -3 -14 3 -21 13
-13 15 -12 16 3 4 9 -8 19 -9 22 -4 3 6 -1 13 -9 16 -8 3 -15 9 -14 13 1 4 0
10 -1 13 -2 7 -9 35 -13 58 -2 9 -9 17 -16 17 -7 0 -23 10 -36 23 -14 14 -26
19 -30 12 -4 -7 -13 -6 -28 2 -12 6 -24 10 -27 9 -3 -1 -26 1 -52 4 -60 9
-135 -13 -237 -67 -103 -55 -300 -189 -306 -208 -4 -13 -94 -46 -115 -42 -15
2 -9 24 9 29 11 3 19 9 16 13 -3 4 3 14 13 21 15 13 16 12 3 -3 -9 -13 -10
-18 -2 -18 7 0 9 -5 5 -12 -4 -7 -3 -8 5 -4 6 4 9 12 6 17 -4 5 -1 9 5 9 6 0
9 4 6 9 -6 8 22 38 32 34 3 -1 8 -7 13 -15 5 -8 7 4 5 29 -2 23 -9 50 -17 60
-9 11 -10 14 -1 9 6 -4 12 -2 12 3 0 6 -7 11 -15 11 -9 0 -15 10 -16 23 0 12
-3 16 -6 9 -3 -9 -12 -6 -29 11 -26 26 -85 47 -132 47 -17 0 -34 5 -37 10 -5
8 -11 8 -20 0 -7 -6 -17 -10 -21 -9 -5 1 -32 1 -61 0 -42 -1 -51 -4 -47 -16 4
-8 17 -18 30 -21 19 -5 22 -9 13 -20 -6 -7 -12 -31 -13 -54 -2 -27 -11 -50
-28 -68 -13 -15 -25 -40 -26 -55 -3 -51 -32 -96 -85 -130 -27 -17 -53 -31 -57
-30 -4 1 -5 -8 -3 -20 6 -28 -31 -77 -58 -77 -13 0 -19 -7 -19 -23 0 -16 -27
-48 -90 -107 -49 -46 -92 -92 -96 -102 -6 -19 18 -62 29 -51 4 3 7 1 7 -6 0
-8 7 -10 20 -6 14 4 20 2 20 -9 0 -8 5 -18 12 -22 7 -4 8 -3 4 4 -4 7 -2 20 4
29 11 17 11 17 6 1 -3 -10 -1 -18 5 -18 6 0 7 -5 3 -12 -4 -7 -3 -8 5 -4 6 4
9 12 5 17 -3 6 7 7 25 4 25 -4 31 -2 31 12 0 15 -2 16 -10 3 -5 -8 -10 -10
-10 -5 1 13 25 45 34 45 4 0 5 -4 2 -9 -3 -5 3 -11 15 -14 20 -5 20 -5 3 21
-17 26 -17 26 1 12 17 -14 17 -13 11 10 -6 20 -5 22 4 8 9 -15 48 -19 43 -5
-2 4 -3 10 -3 13 0 4 -6 1 -13 -5 -10 -8 -14 -7 -14 3 0 9 8 13 24 10 14 -3
22 -1 19 5 -4 5 -1 13 5 17 8 4 9 3 5 -4 -4 -7 -3 -12 3 -12 6 0 8 -8 5 -17
-5 -14 -4 -15 4 -4 10 15 5 42 -10 52 -5 3 4 6 21 7 23 0 29 -3 24 -15 -5 -12
-1 -11 14 4 11 11 27 23 34 25 12 5 12 8 1 19 -11 12 -13 12 -10 -1 2 -10 -3
-14 -16 -12 -12 2 -16 -1 -10 -10 4 -7 3 -9 -1 -5 -16 14 -13 34 3 33 9 0 17
4 17 11 0 6 4 15 9 20 6 5 6 2 1 -6 -6 -11 -4 -13 9 -8 11 5 15 3 10 -5 -4 -6
-3 -8 4 -4 5 3 13 0 15 -6 4 -10 6 -10 6 -1 1 7 -5 18 -13 25 -11 11 -7 17 22
39 20 15 42 25 49 22 8 -3 13 0 11 8 -2 9 4 13 16 11 12 -2 16 1 10 9 -5 8 -3
10 6 4 10 -6 8 -12 -8 -25 -12 -10 -18 -21 -14 -25 4 -5 -1 -5 -10 -2 -10 4
-18 2 -18 -3 0 -18 29 -10 40 10 9 17 15 18 33 10 20 -10 21 -10 4 3 -11 9
-14 18 -8 21 5 4 12 2 16 -4 4 -6 11 -5 19 3 14 12 4 27 -19 27 -5 0 -3 -5 5
-10 12 -7 10 -9 -8 -7 -25 2 -26 3 -10 21 10 10 17 10 38 -1 15 -8 26 -9 28
-3 2 6 8 8 12 5 5 -3 11 -1 15 4 3 6 -5 8 -20 5 -29 -5 -33 7 -8 27 11 10 14
10 9 2 -5 -9 -1 -13 13 -13 10 0 22 -6 25 -12 2 -7 3 4 1 25 -2 21 0 37 6 37
6 0 7 6 3 13 -4 6 -3 8 1 4 13 -11 15 -38 3 -31 -6 4 -6 -1 1 -13 6 -11 7 -24
3 -28 -4 -5 -2 -5 5 -1 7 4 9 14 6 23 -4 10 -2 14 4 10 6 -4 8 3 5 19 -3 15 1
29 8 34 17 10 40 2 36 -13 -1 -7 -1 -9 1 -4 3 4 9 7 14 7 6 0 7 -5 3 -12 -4
-7 -3 -8 5 -4 7 5 9 12 3 19 -10 13 -12 51 -3 41 3 -3 6 -11 6 -17 0 -5 6 -11
13 -13 7 -1 8 0 2 3 -5 2 -7 9 -4 14 3 6 12 5 22 -3 10 -7 14 -8 10 -4 -4 5
-3 15 3 23 14 16 53 18 43 1 -4 -7 -3 -8 5 -4 6 4 9 11 6 15 -7 12 32 44 44
37 5 -4 13 -1 17 5 4 8 3 9 -4 5 -7 -4 -12 -2 -12 5 0 8 -3 9 -13 0 -8 -6 -18
-7 -22 -3 -5 4 -5 1 -1 -6 5 -8 2 -11 -6 -10 -7 2 -12 -3 -10 -11 2 -9 -4 -12
-17 -8 -12 3 -22 -1 -25 -10 -3 -8 -11 -11 -17 -7 -7 4 -9 3 -6 -3 3 -5 0 -10
-8 -10 -8 0 -15 4 -15 9 0 7 8 10 26 7 4 0 10 5 15 13 5 7 12 13 16 13 5 0 19
10 32 22 13 12 28 20 33 17 4 -3 11 2 14 10 3 9 10 16 16 16 5 0 7 -4 4 -9 -3
-5 0 -14 8 -20 11 -9 12 -7 9 12 -6 29 35 61 58 46 12 -7 12 -9 0 -9 -8 0 -12
-2 -9 -5 3 -3 12 -3 21 1 15 5 14 9 -6 26 -12 11 -16 17 -9 13 7 -4 12 0 12
10 0 9 4 14 9 11 5 -3 12 1 15 10 4 9 9 14 12 11 4 -3 13 1 21 9 8 8 18 12 23
9 4 -3 13 1 19 8 11 14 89 16 109 3 9 -5 9 -26 2 -46 -1 -3 -2 -9 -1 -13 1 -5
-17 -47 -39 -94 -22 -47 -40 -95 -40 -108 0 -12 -7 -28 -15 -35 -8 -7 -12 -16
-9 -21 4 -7 -65 -109 -155 -228 -14 -19 -21 -32 -14 -28 6 4 21 -4 33 -20 18
-23 21 -25 18 -8 -2 17 2 20 29 19 21 -1 30 2 26 9 -3 6 -1 7 5 3 15 -9 55 18
44 29 -4 5 -2 5 5 1 6 -3 16 2 22 11 6 10 11 13 11 8 0 -6 -5 -16 -12 -23 -9
-9 -9 -12 -1 -12 7 0 15 5 18 11 4 5 12 8 18 6 7 -2 19 2 29 10 9 8 25 16 35
17 10 2 18 9 18 17 1 8 6 13 12 12 6 -1 19 7 29 19 11 12 14 19 8 15 -6 -3
-19 -1 -28 6 -14 10 -13 12 12 11 16 0 35 -5 43 -9 12 -8 12 -6 0 8 -11 13
-11 17 -1 17 8 0 11 3 7 6 -3 3 -12 2 -19 -2 -7 -5 -19 -9 -26 -10 -10 -2 -10
1 -1 12 6 7 16 11 22 7 6 -4 8 0 4 10 -6 15 -4 16 16 2 13 -8 28 -11 35 -6 11
7 10 10 -3 14 -10 5 -14 3 -9 -5 4 -7 3 -8 -5 -4 -9 6 -9 11 0 22 16 19 24 18
38 -8 l11 -23 -6 24 c-4 16 -3 21 5 17 7 -5 8 -1 4 10 -5 14 -2 16 21 12 14
-3 29 -1 32 4 3 4 10 6 15 3 5 -4 9 -1 9 4 0 14 -13 14 -27 0 -14 -14 -24 13
-12 32 6 10 9 10 9 2 0 -7 4 -13 10 -13 5 0 7 8 3 18 -4 11 1 8 15 -8 12 -14
22 -20 21 -15 -1 6 0 12 1 15 7 19 7 41 0 45 -5 3 -7 -4 -5 -16 2 -12 1 -19
-2 -15 -10 10 -14 46 -5 46 4 0 13 -5 20 -12 7 -7 12 -8 12 -2 0 5 -5 15 -10
20 -8 8 -2 10 17 9 15 -1 33 1 38 4 17 10 35 10 29 0 -3 -5 -11 -6 -17 -2 -8
5 -8 2 0 -9 7 -8 9 -19 5 -23 -4 -5 -1 -5 6 -1 7 4 10 11 7 16 -7 12 25 27 53
24 12 0 25 2 28 7 2 4 -5 6 -16 4 -13 -2 -18 0 -14 7 4 6 -1 6 -14 -1 -27 -15
-36 1 -12 21 16 14 19 14 24 2 3 -8 10 -14 16 -14 6 0 8 5 5 10 -3 6 -1 10 5
10 6 0 8 5 4 12 -5 7 -3 8 6 3 7 -4 16 -2 21 6 5 8 9 9 9 3 0 -6 11 -10 24 -9
19 3 24 -1 21 -16 -2 -10 0 -19 4 -19 7 0 43 -92 46 -120 1 -8 7 -28 14 -44 6
-16 9 -36 6 -45 -3 -8 -3 -12 1 -8 6 6 24 -30 38 -78 6 -22 21 -51 30 -63 30
-36 69 -72 78 -72 6 0 8 -7 5 -14 -4 -10 -1 -13 8 -10 7 3 26 -1 42 -9 21 -11
34 -12 47 -5 14 8 17 7 12 -1 -9 -14 0 -14 27 0 22 12 22 12 3 -10 -11 -11
-16 -24 -13 -28 4 -3 7 -1 7 5 0 7 9 12 21 12 11 0 18 4 14 9 -3 6 3 8 15 6
11 -2 22 1 25 6 4 5 11 7 16 3 5 -3 16 -1 23 5 10 8 17 7 26 -5 12 -13 15 -12
25 13 9 23 12 25 18 10 4 -10 3 -16 -1 -13 -4 2 -9 -4 -9 -15 -1 -10 2 -19 8
-19 5 0 8 5 6 12 -1 7 5 12 13 13 9 0 14 8 12 20 -2 11 -1 17 4 13 4 -4 14 -2
22 5 13 10 14 9 3 -12 -8 -15 -9 -21 -2 -17 6 4 11 2 11 -3 0 -6 4 -11 9 -11
6 0 8 9 6 20 -3 14 2 20 15 20 10 0 22 5 25 10 4 6 11 8 16 5 5 -4 9 -1 9 4 0
18 18 12 23 -6 4 -16 5 -16 6 -1 2 26 -15 30 -50 13 -17 -9 -33 -14 -36 -12
-2 3 5 8 16 12 12 3 19 11 16 16 -3 5 2 6 11 2 13 -5 15 -3 9 7 -5 8 -4 11 2
7 12 -7 44 28 35 39 -4 4 -1 4 6 0 7 -4 9 -13 6 -19 -4 -7 -4 -9 1 -5 4 4 15
2 23 -5 13 -9 14 -9 8 1 -5 8 -1 12 11 13 11 0 13 3 5 6 -6 2 -10 10 -6 16 3
7 -1 4 -9 -6 -13 -16 -15 -16 -21 -2 -3 9 -2 13 4 10 6 -3 10 -1 10 4 0 6 7
11 16 11 14 0 14 3 4 16 -8 8 -9 14 -4 13 20 -3 35 2 29 10 -3 5 -1 12 4 16 6
3 8 -3 6 -15 -2 -11 0 -20 5 -20 5 0 10 -8 12 -17 3 -15 5 -14 10 5 4 13 2 20
-3 16 -6 -3 -8 6 -6 23 3 20 9 27 22 25 10 -2 14 1 10 7 -4 7 0 8 11 4 11 -4
15 -2 11 4 -4 6 2 18 13 28 11 10 20 14 20 9 0 -5 5 -2 11 6 9 13 10 13 6 0
-2 -8 -9 -15 -14 -15 -21 0 -22 -11 -3 -23 14 -8 21 -9 26 0 4 7 3 8 -4 4 -7
-4 -12 -3 -12 2 0 17 13 22 28 9 13 -9 14 -9 8 1 -4 7 -2 12 4 12 6 0 8 5 5
10 -3 6 1 10 10 10 9 0 14 -4 11 -8 -3 -5 1 -9 8 -9 11 0 12 4 3 18 -13 22
-28 20 -43 -5 -10 -18 -11 -17 -17 4 -3 12 -3 19 0 16 4 -3 15 2 26 11 10 10
22 17 26 16 3 0 5 3 4 8 -2 4 5 5 14 2 10 -4 14 -2 10 4 -4 6 5 9 21 8 20 -1
27 -6 25 -21 -1 -18 -1 -18 12 -1 7 10 20 20 29 21 8 1 24 10 35 20 12 11 25
15 33 10 10 -6 11 -4 3 7 -8 10 -1 23 27 52 21 21 35 30 31 20 -6 -16 -5 -16
10 -4 9 7 14 18 10 25 -4 6 1 5 10 -3 13 -11 17 -11 17 -1 0 8 3 10 7 6 4 -4
6 -22 5 -41 -2 -25 3 -37 16 -44 11 -6 22 -7 26 -4 3 3 6 1 6 -5 0 -21 2 -27
11 -38 6 -7 1 -21 -13 -39 -15 -20 -18 -30 -10 -33 7 -2 12 -13 12 -23 0 -11
5 -30 11 -41 8 -15 8 -19 0 -14 -6 4 -11 5 -11 1 0 -10 25 -50 39 -61 8 -6 11
-16 7 -22 -5 -8 -2 -10 8 -6 11 4 19 -2 26 -20 6 -16 17 -26 30 -26 11 0 20
-4 20 -10 0 -5 8 -10 18 -10 15 0 15 -2 2 -11 -12 -8 -10 -9 10 -7 14 2 25 -2
25 -9 0 -7 6 -18 12 -24 10 -10 12 -8 8 9 -3 17 1 22 18 22 16 0 18 -3 9 -9
-11 -6 -10 -9 5 -13 24 -6 53 1 53 13 0 6 -8 5 -20 -1 -28 -15 -25 -6 5 14 23
15 26 15 47 -6 15 -15 20 -17 15 -5 -3 9 -2 19 3 22 6 4 10 1 10 -6 0 -7 3
-10 6 -7 10 10 -19 46 -33 41 -7 -3 -13 -1 -13 5 0 10 25 9 86 -4 25 -5 35 -1
50 19 15 18 27 23 49 21 25 -2 27 -1 12 7 -9 6 -15 14 -12 20 14 22 -8 27 -48
10 -66 -28 -109 -33 -134 -16 -12 8 -20 23 -18 32 1 10 -9 31 -24 47 -14 16
-21 26 -14 22 8 -4 10 2 7 21 -3 15 -12 31 -19 36 -8 4 -11 15 -8 24 5 12 3
14 -7 8 -9 -5 -11 -4 -6 4 4 6 12 9 17 6 17 -11 9 14 -8 25 -17 11 -17 11 0 6
9 -3 17 -1 17 4 0 6 5 10 11 10 8 0 8 -4 0 -14 -9 -10 -9 -16 -1 -21 6 -4 14
-4 17 -1 4 3 1 6 -6 6 -7 0 -5 9 6 27 10 15 19 43 19 63 3 51 3 52 17 44 10
-6 10 -4 0 7 -15 15 -17 39 -4 39 5 0 11 -6 14 -12 2 -7 3 -5 2 4 -3 16 23 47
32 40 3 -2 6 -2 9 0 2 2 -7 4 -21 4 -13 0 -23 -4 -22 -9 1 -5 -6 -11 -15 -12
-17 -3 -17 -2 0 20 9 13 20 21 24 18 4 -2 5 3 2 11 -3 9 -10 14 -14 11 -11 -7
-31 20 -22 30 4 5 1 5 -7 0 -9 -5 -19 -1 -28 11 -7 10 -21 19 -31 19 -10 0
-16 6 -14 15 2 8 1 12 -3 9 -3 -4 -27 -1 -53 5 -84 21 -201 -8 -203 -50 -1
-13 -2 -28 -3 -34 -2 -15 -207 -131 -219 -123 -5 3 -7 1 -4 -4 4 -6 -11 -23
-33 -38 -22 -15 -40 -32 -40 -38 0 -5 -11 -7 -25 -4 -14 2 -23 2 -20 -1 2 -3
-4 -11 -14 -19 -22 -15 -54 -6 -59 16 -3 12 0 12 12 2 13 -11 18 -10 29 1 16
16 18 50 3 60 -7 5 -4 8 7 8 20 0 23 16 5 24 -9 4 -8 5 2 5 29 -2 40 1 40 12
0 6 -7 8 -16 5 -8 -3 -12 -2 -9 4 4 6 17 8 30 6 14 -3 24 0 22 6 -1 6 4 13 12
16 9 3 11 0 6 -8 -5 -9 -4 -11 4 -6 6 4 9 11 6 16 -3 4 0 10 7 12 7 3 5 7 -6
11 -11 5 -15 3 -10 -5 4 -7 3 -8 -4 -4 -7 4 -12 2 -12 -5 0 -7 -3 -9 -6 -6 -4
4 -1 13 5 21 7 8 9 21 5 28 -4 7 -4 10 1 6 4 -4 16 -3 27 3 15 8 17 13 7 25
-15 18 -2 18 17 0 18 -19 54 -9 47 12 -3 13 -1 13 11 -2 9 -11 16 -15 16 -9 0
7 -5 15 -10 18 -6 4 -7 11 -4 17 4 6 -1 6 -14 -1 -13 -7 -23 -7 -27 -2 -6 11
13 26 22 17 3 -3 14 -1 24 4 12 7 20 6 25 -2 4 -6 3 -8 -3 -5 -5 3 -10 0 -10
-7 0 -10 6 -10 24 -2 16 8 18 12 8 14 -17 4 -20 18 -4 27 6 4 8 14 4 23 -3 9
-3 13 1 9 4 -4 13 -2 20 4 8 7 14 6 20 -2 4 -7 3 -10 -2 -7 -5 3 -18 -6 -28
-21 l-20 -26 21 18 c21 18 22 18 33 0 10 -16 10 -15 4 6 -5 18 -3 22 7 15 12
-6 12 -5 1 8 -7 8 -9 24 -5 33 5 14 3 16 -8 10 -11 -7 -12 -6 -2 6 6 8 12 18
12 23 0 6 7 11 16 12 8 1 13 -2 9 -7 -3 -5 -10 -6 -16 -3 -7 4 -8 2 -4 -4 10
-16 33 -4 39 20 3 11 10 17 16 14 11 -7 54 34 45 43 -3 3 -9 -1 -13 -8 -5 -8
-11 -9 -15 -3 -9 15 23 23 46 11 16 -8 19 -8 13 1 -5 9 -1 10 16 6 20 -6 21
-5 6 4 -9 6 -21 9 -25 6 -5 -3 -9 1 -9 9 0 10 6 11 25 4 20 -8 23 -7 15 3 -21
27 7 79 32 58 9 -7 42 18 38 30 -1 3 1 7 4 10 4 3 3 -1 -1 -7 -4 -7 -2 -13 4
-13 6 0 9 -4 6 -8 -3 -5 1 -9 9 -9 12 0 12 3 2 16 -10 12 -9 14 7 8 14 -6 16
-4 9 5 -13 16 -8 48 9 59 11 8 11 11 0 18 -11 7 -10 9 3 14 9 4 14 3 10 -2 -3
-5 0 -11 6 -13 8 -3 5 -11 -7 -22 -19 -20 -29 -50 -12 -40 5 3 7 8 4 12 -3 3
1 10 9 16 7 6 15 17 17 25 9 41 63 71 85 46 4 -4 2 -5 -4 -1 -7 4 -13 2 -13
-4 0 -7 6 -10 13 -7 6 2 12 11 12 21 0 9 6 21 13 25 8 5 13 11 13 15 -3 19 0
27 8 22 5 -4 11 -3 14 1 5 10 -1 -12 -9 -32 -4 -10 0 -15 11 -15 11 0 15 6 10
19 -4 15 -1 18 20 15 20 -2 24 1 16 10 -14 16 -4 27 17 19 12 -5 14 -2 9 11
-4 9 -3 15 2 12 5 -3 13 0 19 7 11 14 12 48 1 41 -5 -2 -5 -12 -2 -21 5 -12 3
-14 -7 -8 -9 6 -11 4 -5 -6 5 -8 4 -11 0 -6 -11 9 -14 48 -4 41 4 -2 11 1 15
7 5 9 11 7 19 -5 11 -15 13 -15 19 -1 4 11 2 14 -6 9 -8 -5 -9 -2 -5 9 3 9 1
19 -5 23 -6 4 -8 3 -5 -3 3 -5 0 -10 -8 -10 -11 0 -12 3 -3 14 6 8 17 12 24 9
13 -5 13 19 -1 31 -4 4 -5 2 -1 -4 4 -8 1 -13 -7 -13 -8 0 -18 7 -21 16 -4 10
-2 13 7 9 6 -4 4 0 -5 8 -10 8 -14 17 -10 21 4 4 3 7 -3 6 -22 -5 -36 1 -29
12 4 6 3 8 -3 5 -6 -4 -35 3 -64 16 -30 12 -58 23 -64 23 -5 0 -37 4 -70 9
-33 5 -63 8 -67 7 -5 -1 -8 2 -8 6 0 5 -6 9 -12 9 -7 0 -24 4 -38 7 -14 4 -29
4 -33 0z m367 -271 c4 -10 4 -14 0 -10 -9 9 -35 -13 -28 -24 3 -5 0 -9 -5 -9
-6 0 -11 7 -11 15 0 8 5 15 11 15 5 0 7 5 3 12 -4 7 -3 8 4 4 7 -4 12 -2 12 3
0 16 7 13 14 -6z m-133 -30 c-12 -20 -14 -14 -5 12 4 9 9 14 11 11 3 -2 0 -13
-6 -23z m-46 -63 c-3 -5 -12 -10 -18 -10 -7 0 -6 4 3 10 19 12 23 12 15 0z
m-81 -66 c3 -8 2 -12 -4 -9 -6 3 -10 10 -10 16 0 14 7 11 14 -7z m-50 -69 c3
-8 1 -15 -4 -15 -6 0 -10 7 -10 15 0 8 2 15 4 15 2 0 6 -7 10 -15z m-51 -20
c-3 -9 -8 -14 -10 -11 -3 3 -2 9 2 15 9 16 15 13 8 -4z m-78 -124 c-3 -6 -14
-8 -25 -6 -11 2 -20 -1 -20 -7 0 -6 -3 -9 -6 -5 -11 10 4 22 31 25 14 1 24 -2
20 -7z m-2248 -271 c1 -11 -2 -22 -8 -25 -7 -5 -7 18 0 43 3 8 7 -1 8 -18z
m1937 -35 c3 -8 1 -15 -4 -15 -6 0 -10 7 -10 15 0 8 2 15 4 15 2 0 6 -7 10
-15z m631 -34 c-3 -5 -1 -12 5 -16 6 -4 7 -12 3 -18 -4 -7 -8 -30 -8 -51 0
-22 -6 -41 -13 -44 -6 -2 -12 3 -12 12 0 9 6 16 13 16 8 0 8 3 2 8 -6 4 -11
21 -11 38 0 24 4 30 16 26 12 -5 13 -3 3 10 -7 8 -10 18 -6 21 9 10 15 8 8 -2z
m-2685 -11 c0 -5 -5 -10 -11 -10 -5 0 -7 5 -4 10 3 6 8 10 11 10 2 0 4 -4 4
-10z m1980 -64 c0 -2 -7 -7 -16 -10 -8 -3 -12 -2 -9 4 6 10 25 14 25 6z m0
-31 c-7 -9 -15 -13 -17 -11 -7 7 7 26 19 26 6 0 6 -6 -2 -15z m-2053 -11 c-3
-3 -12 -4 -19 -1 -8 3 -5 6 6 6 11 1 17 -2 13 -5z m2283 -3 c0 -13 -34 -37
-50 -36 -8 0 -18 -4 -22 -10 -5 -6 -8 -6 -8 3 0 6 -8 12 -17 13 -15 0 -15 2 2
8 11 5 23 7 26 5 4 -2 11 2 17 9 12 14 52 20 52 8z m-256 -30 c17 -7 16 -10
-17 -35 -20 -15 -43 -29 -52 -30 -9 -1 -21 -9 -26 -17 -8 -12 -8 -2 0 40 1 2
8 -2 16 -9 10 -8 15 -9 15 -2 0 6 -8 16 -17 22 -17 11 -17 11 0 6 9 -3 17 0
17 6 0 7 7 3 15 -8 14 -18 14 -18 15 9 0 28 3 30 34 18z m-2000 -46 c3 -8 1
-15 -4 -15 -6 0 -10 7 -10 15 0 8 2 15 4 15 2 0 6 -7 10 -15z m1886 -25 c0 -5
-2 -10 -4 -10 -3 0 -8 5 -11 10 -3 6 -1 10 4 10 6 0 11 -4 11 -10z m-20 -20
c0 -5 -5 -10 -11 -10 -5 0 -7 5 -4 10 3 6 8 10 11 10 2 0 4 -4 4 -10z m-2065
-10 c3 -5 1 -10 -4 -10 -6 0 -11 5 -11 10 0 6 2 10 4 10 3 0 8 -4 11 -10z
m2899 -5 c3 -8 1 -15 -4 -15 -6 0 -10 7 -10 15 0 8 2 15 4 15 2 0 6 -7 10 -15z
m-1318 -20 c-1 -8 -5 -17 -8 -21 -5 -4 -4 16 1 34 3 9 9 -1 7 -13z m-755 -55
c6 0 7 -5 4 -11 -4 -6 -10 -8 -13 -5 -9 9 -32 -15 -25 -27 4 -6 1 -7 -6 -2 -7
4 -23 -3 -38 -16 -15 -13 -22 -17 -17 -9 4 8 9 21 10 28 3 18 14 29 14 14 0
-6 7 -9 16 -5 13 5 13 8 2 15 -10 8 -9 9 4 4 17 -5 35 9 21 17 -5 2 -2 2 5 0
8 -1 18 -3 23 -3z m-101 -50 c0 -5 -5 -10 -11 -10 -5 0 -7 5 -4 10 3 6 8 10
11 10 2 0 4 -4 4 -10z m2260 -86 c0 -8 -19 -13 -24 -6 -3 5 1 9 9 9 8 0 15 -2
15 -3z m-3296 -72 c3 -5 -1 -9 -9 -9 -8 0 -12 4 -9 9 3 4 7 8 9 8 2 0 6 -4 9
-8z"/>
<path d="M4809 3064 c-7 -9 -6 -12 6 -10 22 3 40 23 20 23 -8 0 -20 -6 -26
-13z"/>
<path d="M4583 3035 c0 -8 4 -12 9 -9 5 3 6 10 3 15 -9 13 -12 11 -12 -6z"/>
<path d="M5362 3816 c7 -8 15 -12 17 -11 5 6 -10 25 -20 25 -5 0 -4 -6 3 -14z"/>
<path d="M5283 3792 c-9 -15 -8 -19 3 -19 7 0 11 4 8 9 -3 4 0 8 5 8 6 0 11 5
11 10 0 16 -14 12 -27 -8z"/>
<path d="M5270 3749 c0 -5 5 -7 10 -4 6 3 10 8 10 11 0 2 -4 4 -10 4 -5 0 -10
-5 -10 -11z"/>
<path d="M5237 3703 c-10 -9 -9 -33 1 -33 4 0 8 9 8 20 0 23 0 22 -9 13z"/>
<path d="M5106 3641 c-3 -4 0 -16 8 -26 11 -15 13 -16 13 -1 0 9 -5 16 -11 16
-6 0 -4 5 4 10 9 6 10 10 3 10 -6 0 -14 -4 -17 -9z"/>
<path d="M5050 3539 c0 -5 5 -7 10 -4 6 3 10 8 10 11 0 2 -4 4 -10 4 -5 0 -10
-5 -10 -11z"/>
<path d="M2040 3523 c-36 -7 -51 -22 -41 -41 6 -11 3 -29 -10 -54 -10 -20 -19
-44 -19 -52 0 -8 -6 -17 -12 -19 -10 -4 -10 -6 -1 -6 10 -1 10 -7 1 -26 -6
-14 -15 -25 -20 -25 -5 0 -6 -4 -3 -10 3 -5 -1 -10 -10 -10 -10 0 -13 5 -9 12
4 6 3 8 -4 4 -8 -5 -10 21 -2 32 2 1 3 6 4 11 0 5 5 13 10 18 5 5 6 2 1 -6 -6
-10 -4 -12 5 -6 32 20 -95 72 -147 61 -15 -4 -38 -8 -50 -11 -124 -23 -361
-107 -472 -168 -145 -79 -284 -199 -326 -283 -11 -21 -26 -43 -33 -47 -14 -9
-15 -107 -1 -107 4 0 10 -8 13 -18 4 -11 18 -25 31 -32 16 -8 21 -16 14 -20
-6 -5 -2 -9 10 -13 14 -3 19 -1 14 6 -4 8 -2 8 9 0 8 -7 19 -9 24 -5 4 4 2 -2
-6 -12 -12 -15 -12 -18 -1 -12 8 5 17 3 23 -5 6 -10 7 -6 2 11 -6 20 -4 23 7
14 8 -6 22 -10 32 -9 10 2 21 -3 24 -12 5 -12 8 -12 15 -1 7 9 8 7 5 -10 -3
-12 -1 -20 4 -16 5 3 9 14 9 25 0 10 4 19 9 19 4 0 7 -11 6 -25 -3 -22 -1 -23
16 -14 11 6 23 17 26 25 3 8 9 14 14 14 6 0 5 -8 -1 -19 -7 -14 -7 -22 0 -26
6 -4 9 -3 8 2 -3 8 5 13 23 13 5 0 7 -5 3 -12 -4 -6 -3 -8 4 -5 5 4 9 18 7 32
-2 24 -1 25 15 10 14 -12 20 -13 26 -4 4 7 3 10 -2 6 -6 -3 -15 3 -22 14 -7
11 -8 19 -2 19 5 0 10 -4 10 -9 0 -19 36 -17 59 3 13 12 21 15 17 9 -4 -8 -1
-13 8 -13 17 0 17 20 1 33 -6 5 -3 7 8 3 9 -3 17 0 17 6 0 6 3 8 6 5 4 -4 1
-13 -5 -21 -9 -11 -9 -16 0 -22 8 -5 9 -3 4 5 -5 9 -1 12 13 9 12 -2 27 5 35
16 11 15 16 16 22 6 6 -9 4 -11 -6 -5 -8 5 -11 5 -7 0 4 -4 2 -15 -5 -24 -10
-14 -10 -14 4 -4 9 7 20 9 24 5 5 -4 4 -1 0 7 -6 10 -4 13 6 9 18 -7 24 28 7
38 -8 5 -9 1 -5 -10 4 -9 3 -15 -2 -11 -6 3 -9 14 -8 25 1 10 4 17 8 14 4 -2
12 4 18 13 7 12 10 13 11 4 0 -11 3 -11 15 -1 12 10 18 10 31 -1 14 -11 18
-10 30 6 16 21 19 49 5 41 -5 -4 -6 4 -3 16 5 19 7 20 10 5 2 -9 8 -15 13 -12
5 3 6 0 3 -8 -3 -8 -1 -18 5 -22 7 -4 8 0 4 11 -4 10 -2 15 4 11 6 -4 9 5 8
22 -1 22 2 28 13 23 11 -4 13 -2 7 9 -8 12 -6 12 8 0 10 -8 34 -15 55 -16 20
-1 29 0 20 2 -22 6 -24 23 -2 23 8 0 12 5 9 10 -4 6 -11 7 -17 4 -7 -4 -8 -2
-4 4 5 8 13 9 25 2 13 -6 24 -5 36 4 17 12 16 13 -6 11 -37 -3 -42 5 -19 30
14 15 30 22 43 19 26 -5 40 15 24 35 -10 12 -8 13 12 6 l23 -7 -21 21 c-25 25
-33 27 -25 6 9 -23 -4 -18 -17 6 -11 21 -10 21 25 15 20 -4 36 -3 35 1 -1 4 0
11 1 16 1 4 3 10 4 15 0 4 11 20 24 36 25 32 42 29 20 -3 -8 -12 -18 -18 -21
-14 -4 3 -7 1 -7 -4 0 -6 6 -14 13 -16 7 -3 6 -6 -5 -6 -9 -1 -19 -5 -22 -10
-4 -5 4 -7 16 -4 20 4 21 3 8 -9 -8 -7 -16 -22 -18 -32 -6 -35 -45 -77 -67
-72 -17 4 -18 3 -3 -7 14 -10 15 -13 1 -34 -8 -13 -23 -23 -32 -24 -9 0 -11
-3 -4 -5 15 -7 -51 -106 -78 -116 -11 -4 -17 -13 -14 -18 10 -16 -67 -111
-200 -245 -133 -135 -210 -198 -335 -275 -177 -110 -370 -174 -514 -171 -34 1
-70 2 -80 2 -11 0 -29 5 -40 12 -12 6 -29 10 -40 8 -10 -1 -15 2 -12 7 4 6 -3
8 -16 4 -16 -4 -19 -2 -13 8 6 9 4 11 -4 6 -7 -5 -19 0 -27 10 -9 11 -12 12
-8 4 5 -10 -1 -8 -17 5 -46 38 -89 89 -85 102 3 7 -1 10 -10 6 -34 -13 14
-127 83 -199 24 -24 45 -44 48 -44 3 0 8 0 13 0 4 0 0 -5 -8 -10 -9 -6 -10
-10 -3 -10 6 0 15 5 18 10 5 8 12 7 22 -2 9 -7 18 -12 20 -10 1 1 11 2 21 2
13 -1 12 -4 -7 -14 l-24 -13 30 1 c22 1 29 5 26 16 -3 10 -2 11 4 3 4 -6 22
-10 40 -8 25 2 30 -1 25 -14 -5 -14 -3 -14 14 1 12 11 24 14 33 8 8 -4 20 -6
27 -3 15 6 28 -13 14 -22 -5 -3 -10 -2 -10 4 0 10 -46 8 -57 -3 -4 -3 -1 -12
6 -19 10 -9 12 -9 9 2 -2 7 3 16 11 19 9 3 11 0 6 -8 -5 -9 -4 -11 4 -6 6 4
19 2 28 -6 10 -8 14 -8 10 -1 -11 18 12 26 31 12 14 -11 15 -11 5 1 -7 8 -13
17 -13 20 0 10 39 9 45 -1 3 -5 0 -7 -7 -6 -7 2 -10 2 -5 0 4 -3 4 -10 0 -16
-4 -7 1 -6 10 2 13 11 17 11 17 1 0 -8 3 -11 6 -8 3 4 1 15 -5 25 -8 15 -7 20
4 20 8 0 12 -4 9 -9 -3 -4 2 -11 11 -14 13 -5 13 -9 3 -22 -12 -14 -11 -14 10
-1 20 13 31 32 15 27 -5 -2 -9 2 -10 7 -1 6 9 9 23 8 13 -1 22 2 19 7 -3 5 -1
11 4 14 4 3 8 -4 7 -16 0 -12 6 -23 14 -25 10 -3 11 -2 4 4 -7 5 -8 16 -3 28
6 17 8 17 8 3 1 -20 16 -24 27 -6 5 7 3 8 -7 3 -11 -7 -12 -6 -2 7 7 8 9 19 5
24 -4 4 0 3 9 -4 20 -15 62 -25 54 -12 -3 4 -2 10 2 13 5 2 1 2 -7 0 -8 -2
-11 -1 -7 3 4 4 1 14 -5 23 -7 9 -8 13 -3 8 4 -4 17 0 27 10 22 20 24 11 2
-11 -13 -14 -13 -16 -1 -16 9 0 18 -6 21 -12 3 -7 3 -2 0 11 -4 16 -3 21 5 17
6 -4 11 -2 11 3 0 6 5 11 11 11 5 0 7 -6 3 -12 -4 -7 5 -2 21 12 22 20 27 21
22 7 -4 -11 -3 -16 4 -12 5 4 8 12 6 18 -4 14 -44 19 -52 7 -3 -6 -11 -10 -18
-10 -6 0 -1 7 11 16 12 8 26 13 31 10 5 -4 12 0 14 6 4 10 6 10 6 1 1 -7 6
-13 12 -13 6 0 9 7 5 15 -3 8 -1 15 5 15 7 0 9 -11 5 -27 -3 -16 -3 -22 0 -15
5 10 9 10 22 0 16 -12 16 -11 2 6 -14 18 -13 19 3 13 11 -4 16 -3 12 3 -3 6 3
11 14 11 38 3 71 17 71 32 0 5 -8 3 -18 -6 -15 -14 -19 -15 -19 -2 0 8 4 12 8
10 10 -7 30 21 21 30 -4 5 -1 5 6 1 7 -4 10 -11 7 -16 -7 -11 22 -7 32 5 4 4
2 5 -4 1 -8 -4 -13 -1 -13 8 0 9 -5 16 -12 16 -6 0 -8 3 -5 6 4 4 13 1 22 -6
18 -15 20 0 3 20 -7 8 -3 6 9 -4 13 -10 20 -23 16 -29 -3 -6 -1 -7 5 -3 8 5 9
13 3 25 -11 20 2 47 17 37 6 -3 13 -2 17 4 3 5 0 10 -7 10 -7 0 -2 7 11 16 21
15 24 15 39 -1 11 -11 12 -15 3 -10 -10 6 -12 4 -6 -6 5 -8 5 -11 0 -7 -11 11
-45 -10 -45 -28 0 -8 -5 -12 -10 -9 -6 4 -7 11 -4 17 4 7 2 8 -5 4 -9 -6 -9
-11 0 -22 13 -16 29 -10 29 12 0 8 5 12 10 9 6 -3 10 -2 10 4 0 5 9 8 20 6 11
-2 19 -1 17 3 -1 4 2 8 7 9 5 1 12 7 17 14 6 10 11 10 26 -1 15 -12 16 -12 6
0 -14 15 -18 34 -5 26 4 -2 8 3 9 13 1 10 -9 24 -23 31 -13 8 -22 15 -19 18 2
3 12 -1 21 -8 13 -11 17 -11 24 -1 5 9 10 10 14 3 4 -6 13 -9 20 -6 19 7 13
51 -9 69 -19 14 -19 15 -1 8 12 -4 17 -3 13 4 -9 14 30 63 49 63 8 0 14 -5 14
-11 0 -6 -7 -8 -16 -5 -10 4 -13 2 -8 -6 4 -7 3 -8 -4 -4 -18 11 -14 -9 3 -24
13 -11 15 -10 10 1 -6 18 39 41 53 27 7 -7 10 -4 9 8 -2 13 4 18 18 17 11 -1
14 0 8 3 -14 6 -18 25 -5 23 19 -3 32 2 32 12 0 8 -4 9 -13 0 -8 -6 -16 -8
-20 -5 -3 3 -10 -4 -17 -15 -14 -27 -27 -27 -40 2 -10 20 -10 20 3 5 17 -22
31 -23 23 -3 -3 8 0 14 7 12 7 -1 11 3 10 9 -1 7 6 10 16 7 12 -3 26 5 40 23
19 24 20 30 8 39 -12 9 -12 12 1 25 14 13 15 12 9 -3 -3 -9 -2 -19 3 -22 4 -3
10 1 13 7 4 10 7 10 18 0 11 -11 11 -13 1 -10 -20 5 -43 -34 -31 -52 9 -13 10
-13 8 0 -3 28 1 41 10 35 5 -3 13 0 16 6 4 5 13 8 21 5 8 -3 14 -1 14 5 0 6 5
7 10 4 6 -3 10 -1 10 4 0 6 -5 11 -11 11 -6 0 -3 7 5 16 9 8 14 20 10 25 -3 5
-2 8 3 7 12 -4 53 34 53 50 0 7 5 10 10 7 6 -3 10 -1 10 6 0 8 5 8 18 -2 9 -7
14 -9 10 -5 -4 5 0 15 10 23 9 8 12 12 5 9 -15 -8 -11 18 7 40 14 16 13 17 -3
11 -11 -4 -16 -3 -12 4 4 5 15 7 26 4 13 -4 18 -2 16 7 -2 7 -2 10 0 6 9 -15
25 -8 19 8 -3 9 -2 12 5 9 6 -4 8 -13 5 -21 -3 -7 0 -16 6 -20 7 -5 8 -2 3 6
-6 10 -4 12 9 7 15 -6 16 -5 2 15 -11 16 -13 25 -4 35 13 16 28 17 28 2 0 -5
-4 -8 -9 -5 -11 7 -8 -20 3 -31 4 -4 7 -3 6 2 -5 24 1 27 16 9 8 -10 13 -14
10 -7 -4 6 4 19 16 27 20 14 17 19 -9 15 -5 -1 -7 -5 -5 -10 1 -5 -2 -9 -8 -9
-13 0 -13 6 2 29 10 17 14 18 34 5 17 -12 24 -12 30 -3 4 8 3 9 -4 5 -7 -4
-12 -2 -12 4 0 6 -4 9 -9 6 -5 -3 -12 1 -15 9 -4 13 -2 14 14 5 11 -6 20 -8
20 -4 0 3 6 3 13 -2 7 -5 4 -1 -6 8 -10 10 -16 23 -14 30 4 10 6 10 6 1 1 -19
38 -36 47 -21 4 7 4 10 -1 6 -4 -4 -14 -1 -21 7 -20 19 -17 27 5 16 14 -8 20
-7 25 4 3 8 2 14 -2 14 -20 -3 -32 2 -26 12 4 8 9 7 15 -2 5 -8 9 -10 9 -5 0
5 6 4 13 -2 10 -8 13 -6 14 8 1 13 -3 17 -13 13 -8 -3 -14 0 -14 7 0 6 5 8 10
5 6 -3 10 -2 10 4 0 6 7 8 15 5 11 -5 13 -2 9 10 -3 9 -10 13 -16 10 -5 -3 -4
3 3 14 7 11 18 18 25 15 16 -6 27 14 13 23 -8 5 -9 3 -4 -6 5 -9 4 -11 -4 -6
-9 6 -9 11 -1 21 8 10 7 15 -2 19 -7 3 -4 4 7 3 12 -1 19 3 17 11 -1 8 2 11 7
8 5 -4 12 -2 16 4 4 6 10 8 15 5 5 -3 11 -1 14 4 4 5 1 13 -5 17 -8 5 -9 3 -4
-6 5 -9 4 -11 -4 -6 -8 6 -9 12 -2 20 6 7 10 15 8 17 -1 2 0 3 2 2 2 -2 11 3
20 9 10 8 9 4 -3 -10 -11 -12 -14 -22 -9 -22 6 0 14 7 17 16 4 11 13 14 28 11
14 -4 18 -3 10 5 -5 5 -22 11 -36 11 -14 1 -26 3 -26 4 0 1 13 9 29 18 23 11
31 12 35 2 3 -6 3 -1 0 12 -5 18 -3 22 7 17 8 -4 6 -1 -3 7 -24 19 -23 30 0
18 14 -7 19 -6 19 4 0 8 -4 12 -9 9 -4 -3 -8 4 -8 15 0 31 -1 35 -10 46 -5 6
-7 26 -6 46 1 24 -3 35 -10 32 -7 -2 -18 5 -26 16 -8 12 -18 18 -21 14 -4 -3
-7 0 -7 7 0 7 -3 10 -6 7 -4 -3 -15 -2 -24 3 -21 11 -124 19 -160 13z m-117
-257 c3 4 1 -7 -5 -24 -7 -17 -15 -29 -19 -26 -4 2 -41 -24 -81 -59 -83 -72
-163 -128 -259 -179 -73 -39 -256 -116 -288 -121 -11 -2 -23 -6 -26 -9 -8 -8
-45 2 -45 12 0 4 -14 6 -31 4 -17 -2 -27 0 -24 6 3 5 -3 13 -12 19 -10 6 -13
11 -6 11 7 0 10 7 7 18 -5 14 -4 15 5 2 10 -14 16 -7 12 14 -3 13 20 36 30 30
5 -3 9 0 9 5 0 6 7 11 16 11 9 0 12 -5 8 -12 -4 -7 -3 -8 5 -4 9 6 9 11 1 21
-14 17 -3 38 15 31 26 -10 37 24 24 74 -3 11 7 16 39 18 23 2 42 7 42 12 0 5
-12 6 -27 4 -15 -3 -25 -3 -22 1 6 6 41 15 69 18 18 2 41 38 33 51 -4 5 -1 6
6 2 6 -4 10 -15 9 -23 -3 -17 28 -27 38 -12 3 5 2 8 -3 7 -4 -2 -10 2 -11 7
-2 6 -9 17 -15 25 -8 10 -4 9 13 -3 13 -9 29 -17 35 -17 5 0 3 5 -5 10 -8 5
-12 10 -7 11 4 1 12 3 17 4 6 1 15 3 20 4 6 0 10 6 10 12 0 8 -6 7 -17 -2 -11
-10 -14 -10 -9 -1 4 7 2 12 -5 12 -22 0 0 13 23 14 13 1 29 5 35 9 9 6 11 3 7
-8 -4 -9 -13 -14 -21 -11 -8 3 -11 2 -8 -3 8 -14 58 -6 63 10 3 11 1 11 -8 -1
-10 -13 -11 -13 -7 0 2 8 8 15 13 15 5 1 19 6 31 13 12 6 28 9 36 6 8 -3 18
-1 22 5 8 14 35 14 35 1 0 -5 -7 -6 -17 -3 -12 5 -14 3 -8 -7 6 -9 4 -11 -5
-5 -9 5 -11 4 -6 -3 5 -9 13 -9 26 -2 11 6 23 10 27 9 19 -3 33 2 33 12 0 8
-4 8 -14 0 -10 -9 -15 -8 -19 2 -3 9 5 13 26 12 18 0 32 -7 35 -15 3 -13 2
-13 -7 0 -13 18 -14 1 -2 -19 7 -11 10 -9 15 6 6 19 9 20 48 6 36 -12 43 -12
57 1 9 10 11 16 4 16 -6 0 -13 -5 -15 -12 -3 -8 -9 -8 -24 1 -13 9 -14 11 -2
7 9 -2 22 2 29 10 10 13 14 11 29 -11 9 -14 19 -22 23 -19z m367 16 c0 -5 -7
-9 -15 -9 -8 0 -12 4 -9 9 3 4 9 8 15 8 5 0 9 -4 9 -8z m-840 -62 c0 -5 -5
-10 -11 -10 -5 0 -7 5 -4 10 3 6 8 10 11 10 2 0 4 -4 4 -10z m-105 -60 c-3 -5
-12 -10 -18 -10 -7 0 -6 4 3 10 19 12 23 12 15 0z m-100 -80 c3 -5 1 -10 -4
-10 -6 0 -11 5 -11 10 0 6 2 10 4 10 3 0 8 -4 11 -10z m-18 -42 c-3 -8 -6 -5
-6 6 -1 11 2 17 5 13 3 -3 4 -12 1 -19z m29 7 c-3 -20 -16 -31 -16 -13 0 13 8
28 16 28 1 0 1 -7 0 -15z m549 2 c12 -10 14 -16 7 -21 -7 -4 -12 -2 -12 4 0 6
-5 8 -12 4 -6 -4 -8 -3 -4 4 3 5 0 13 -6 15 -7 3 -8 6 -2 6 5 1 18 -5 29 -12z
m-611 -45 c3 -5 -1 -9 -9 -9 -8 0 -12 4 -9 9 3 4 7 8 9 8 2 0 6 -4 9 -8z m701
-42 c-3 -5 0 -10 7 -10 10 0 9 -3 -2 -9 -8 -6 -18 -7 -22 -5 -4 3 -8 -3 -9
-13 0 -11 -3 -13 -6 -5 -3 7 3 22 13 33 18 20 29 26 19 9z m-70 -52 c5 4 5 1
1 -6 -6 -10 -11 -10 -22 -1 -8 6 -14 14 -14 16 0 3 6 0 13 -6 8 -6 18 -7 22
-3z m-259 -61 c10 4 12 0 8 -11 -8 -22 -17 -20 -33 7 -9 15 -9 18 -1 10 7 -6
19 -9 26 -6z m272 -54 c-5 -7 -15 -11 -21 -10 -7 1 -11 -4 -9 -11 1 -7 -5 -15
-13 -18 -12 -5 -13 -9 -4 -20 7 -8 9 -17 5 -21 -3 -3 -6 -1 -6 5 0 7 -5 12
-11 12 -5 0 -7 -4 -4 -10 3 -6 -1 -7 -9 -4 -14 5 -14 8 0 21 16 16 14 38 -3
38 -6 0 -15 4 -20 8 -4 5 -1 7 7 5 8 -2 14 3 12 10 -1 8 2 11 8 7 5 -3 10 -1
10 6 0 7 6 4 14 -6 13 -18 14 -18 27 3 9 14 16 18 21 9 4 -6 2 -17 -4 -24z
m-664 -108 c-4 -8 -11 -15 -16 -15 -6 0 -5 6 2 15 7 8 14 15 16 15 2 0 1 -7
-2 -15z m61 5 c3 -5 1 -10 -4 -10 -6 0 -11 5 -11 10 0 6 2 10 4 10 3 0 8 -4
11 -10z m374 -106 c-9 -11 -14 -12 -20 -3 -9 15 0 41 12 33 5 -3 10 1 10 8 1
7 3 5 6 -5 3 -10 -1 -25 -8 -33z m-119 -69 c-7 -9 -15 -13 -18 -10 -3 2 1 11
8 20 7 9 15 13 18 10 3 -2 -1 -11 -8 -20z m-82 -203 c-14 -17 -53 -38 -44 -24
3 6 0 13 -6 16 -7 3 -2 3 11 0 17 -5 21 -3 16 6 -5 9 -4 11 3 6 16 -10 15 7 0
23 -11 11 -9 11 9 0 17 -10 19 -16 11 -27z m-253 -163 c-4 -5 -12 -9 -18 -8
-9 0 -8 2 1 6 6 2 9 10 6 15 -4 7 -2 8 5 4 6 -4 9 -12 6 -17z m-221 -115 c3
-8 2 -12 -4 -9 -6 3 -10 10 -10 16 0 14 7 11 14 -7z"/>
<path d="M1601 3261 c-19 -12 -22 -38 -5 -38 11 0 11 4 2 14 -9 12 -7 14 13
11 13 -2 31 -8 39 -12 9 -6 8 -1 -4 12 -21 25 -25 26 -45 13z"/>
<path d="M1790 3259 c0 -5 5 -7 10 -4 6 3 10 8 10 11 0 2 -4 4 -10 4 -5 0 -10
-5 -10 -11z"/>
<path d="M1355 3120 c3 -5 8 -10 11 -10 2 0 4 5 4 10 0 6 -5 10 -11 10 -5 0
-7 -4 -4 -10z"/>
<path d="M1265 3090 c3 -5 10 -10 16 -10 5 0 9 5 9 10 0 6 -7 10 -16 10 -8 0
-12 -4 -9 -10z"/>
<path d="M1164 2948 c-3 -5 -3 -12 0 -15 3 -4 -1 -15 -11 -25 -9 -10 -14 -18
-12 -19 2 0 12 -2 22 -4 15 -3 16 -1 5 13 -11 13 -11 15 5 9 15 -6 16 -4 6 14
-10 19 -8 20 11 14 16 -5 21 -3 18 6 -5 15 -36 21 -44 7z"/>
<path d="M1776 2792 c-3 -5 1 -15 8 -21 11 -10 14 -9 12 3 -3 21 -13 29 -20
18z"/>
<path d="M4990 3499 c0 -5 5 -7 10 -4 6 3 10 8 10 11 0 2 -4 4 -10 4 -5 0 -10
-5 -10 -11z"/>
<path d="M4947 3469 c7 -7 15 -10 18 -7 3 3 -2 9 -12 12 -14 6 -15 5 -6 -5z"/>
<path d="M4950 3438 c0 -4 4 -8 9 -8 6 0 12 4 15 8 3 5 -1 9 -9 9 -8 0 -15 -4
-15 -9z"/>
<path d="M2304 3407 c1 -11 8 -22 16 -24 13 -4 13 -3 0 6 -12 9 -13 13 -2 20
11 7 11 9 -1 14 -10 4 -14 -1 -13 -16z"/>
<path d="M2310 3366 c0 -2 7 -9 15 -16 13 -11 14 -10 9 4 -5 14 -24 23 -24 12z"/>
<path d="M3526 3361 c-3 -5 1 -11 9 -14 9 -4 12 -1 8 9 -6 16 -10 17 -17 5z"/>
<path d="M1920 3320 c-13 -8 -13 -10 2 -10 9 0 20 5 23 10 8 13 -5 13 -25 0z"/>
<path d="M3071 3316 c-7 -9 -17 -14 -21 -11 -10 6 -32 -20 -23 -28 3 -4 1 -7
-4 -7 -6 0 -13 4 -15 9 -1 5 -12 -3 -22 -17 -11 -15 -16 -24 -11 -20 4 4 14 3
22 -4 8 -6 13 -7 11 -2 -3 11 70 79 77 72 3 -3 -4 -13 -15 -23 -11 -10 -20
-21 -20 -25 0 -4 15 7 34 25 28 26 41 32 67 29 18 -2 30 -1 26 2 -9 10 -77 12
-71 2 3 -4 1 -8 -5 -8 -5 0 -11 5 -13 11 -2 7 -9 5 -17 -5z"/>
<path d="M2794 3281 c0 -16 4 -27 8 -25 4 2 5 14 3 26 -7 32 -13 32 -11 -1z"/>
<path d="M3930 3303 c0 -6 8 -17 18 -24 16 -13 16 -13 2 6 -8 11 -16 22 -17
24 -2 2 -3 0 -3 -6z"/>
<path d="M4741 3276 c2 -2 15 -9 29 -15 24 -11 24 -11 6 3 -16 13 -49 24 -35
12z"/>
<path d="M3941 3253 c7 -12 15 -20 18 -17 3 2 -3 12 -13 22 -17 16 -18 16 -5
-5z"/>
<path d="M2928 3216 c-10 -7 -18 -18 -18 -24 0 -17 18 -24 26 -11 4 8 3 9 -4
5 -7 -4 -12 -2 -12 3 0 6 4 11 9 11 5 0 11 7 15 15 7 18 6 18 -16 1z"/>
<path d="M2734 3201 c0 -11 4 -17 8 -15 4 3 8 12 8 20 0 8 -4 14 -8 14 -4 0
-8 -9 -8 -19z"/>
<path d="M2987 3199 c7 -7 15 -10 18 -7 3 3 -2 9 -12 12 -14 6 -15 5 -6 -5z"/>
<path d="M2953 3185 c0 -8 4 -12 9 -9 5 3 6 10 3 15 -9 13 -12 11 -12 -6z"/>
<path d="M3980 3186 c7 -7 13 -7 20 0 6 6 3 10 -10 10 -13 0 -16 -4 -10 -10z"/>
<path d="M3650 3159 c0 -10 27 -19 34 -12 12 12 5 22 -14 20 -11 -1 -20 -4
-20 -8z"/>
<path d="M4666 3154 c-9 -24 -7 -27 9 -10 17 17 19 26 6 26 -5 0 -12 -7 -15
-16z"/>
<path d="M2201 3136 c-18 -19 -20 -24 -7 -29 11 -4 13 -1 9 10 -5 12 -3 14 7
8 8 -5 11 -4 6 3 -3 5 0 12 6 15 7 2 10 7 7 11 -3 3 -16 -5 -28 -18z"/>
<path d="M3630 3151 c0 -6 4 -13 10 -16 6 -3 7 1 4 9 -7 18 -14 21 -14 7z"/>
<path d="M4959 3133 c-6 -7 -15 -11 -19 -8 -4 2 -18 -8 -31 -23 -13 -15 -20
-24 -15 -20 5 4 15 0 23 -10 13 -15 13 -15 4 5 -7 14 -8 24 -1 28 5 3 10 0 10
-7 0 -10 2 -10 9 0 4 8 12 13 17 13 5 -1 10 4 10 9 3 23 5 24 13 12 7 -11 9
-11 14 0 7 18 -20 19 -34 1z"/>
<path d="M3474 3073 c-1 -13 3 -23 9 -23 6 0 7 3 4 6 -3 4 -2 14 3 24 6 11 5
17 -3 17 -7 0 -13 -11 -13 -24z"/>
<path d="M2780 3079 c0 -5 5 -7 10 -4 6 3 10 8 10 11 0 2 -4 4 -10 4 -5 0 -10
-5 -10 -11z"/>
<path d="M2160 3056 c7 -7 14 -6 21 1 9 9 7 12 -9 10 -14 -1 -18 -5 -12 -11z"/>
<path d="M2667 3053 c-8 -17 -1 -37 13 -40 10 -3 11 -2 4 4 -6 4 -10 16 -8 26
2 18 -2 23 -9 10z"/>
<path d="M3993 3038 c-13 -19 -10 -81 5 -86 13 -4 12 24 -2 47 -7 11 -5 13 10
8 18 -7 18 -6 1 7 -13 10 -15 15 -5 19 7 2 10 7 7 11 -3 4 -10 1 -16 -6z"/>
<path d="M4721 3010 c-24 -17 -19 -32 7 -23 11 5 13 3 7 -7 -6 -9 -4 -11 4 -6
7 5 10 11 7 14 -3 3 1 13 9 22 21 23 -4 23 -34 0z"/>
<path d="M1757 2992 c-15 -16 -15 -18 3 -18 12 0 18 7 17 18 -1 10 -2 18 -3
18 0 0 -8 -8 -17 -18z"/>
<path d="M5298 2998 c-7 -17 15 -19 29 -3 4 4 3 5 -4 2 -6 -4 -13 -2 -15 5 -3
8 -6 6 -10 -4z"/>
<path d="M5335 2939 c-4 -6 -5 -12 -2 -15 2 -3 7 2 10 11 7 17 1 20 -8 4z"/>
<path d="M4594 2905 c0 -19 3 -22 13 -13 10 8 10 14 2 24 -15 18 -15 18 -15
-11z"/>
<path d="M1640 2895 c-11 -13 -10 -14 5 -9 14 6 16 4 10 -6 -5 -8 -4 -11 3 -6
6 4 9 13 5 21 -7 19 -8 19 -23 0z"/>
<path d="M5330 2901 c0 -6 4 -12 8 -15 5 -3 9 1 9 9 0 8 -4 15 -9 15 -4 0 -8
-4 -8 -9z"/>
<path d="M1690 2896 c0 -2 8 -10 18 -17 15 -13 16 -12 3 4 -13 16 -21 21 -21
13z"/>
<path d="M2396 2877 c-23 -19 -26 -26 -15 -33 25 -15 36 -12 34 10 -1 11 2 27
8 34 14 18 5 15 -27 -11z m6 -14 c-6 -2 -9 -10 -6 -15 4 -7 2 -8 -5 -4 -13 9
-5 26 12 25 9 0 8 -2 -1 -6z"/>
<path d="M4543 2883 c0 -7 6 -13 13 -13 6 0 14 6 17 13 3 7 -3 13 -12 13 -10
0 -18 -6 -18 -13z"/>
<path d="M3998 2883 c7 -3 16 -2 19 1 4 3 -2 6 -13 5 -11 0 -14 -3 -6 -6z"/>
<path d="M4000 2860 c-13 -8 -13 -10 2 -10 9 0 20 5 23 10 8 13 -5 13 -25 0z"/>
<path d="M5566 2861 c-4 -5 -2 -12 3 -15 5 -4 12 -2 15 3 4 5 2 12 -3 15 -5 4
-12 2 -15 -3z"/>
<path d="M4493 2830 c-1 -11 2 -22 6 -24 3 -3 8 6 9 20 1 13 -2 24 -6 24 -4 0
-8 -9 -9 -20z"/>
<path d="M5351 2837 c2 -1 13 -9 24 -17 19 -14 19 -14 6 3 -7 9 -18 17 -24 17
-6 0 -8 -1 -6 -3z"/>
<path d="M1590 2819 c0 -5 5 -7 10 -4 6 3 10 8 10 11 0 2 -4 4 -10 4 -5 0 -10
-5 -10 -11z"/>
<path d="M5567 2819 c7 -7 15 -10 18 -7 3 3 -2 9 -12 12 -14 6 -15 5 -6 -5z"/>
<path d="M1515 2810 c-4 -6 -10 -8 -15 -5 -5 3 -11 1 -14 -4 -3 -5 3 -11 14
-14 11 -3 18 0 17 7 -1 6 4 10 11 8 8 -1 11 2 7 8 -8 13 -12 13 -20 0z"/>
<path d="M1913 2807 c0 -8 6 -14 14 -14 9 0 10 4 2 14 -6 7 -12 13 -14 13 -1
0 -2 -6 -2 -13z"/>
<path d="M1880 2795 c-11 -13 -10 -14 4 -9 9 3 16 10 16 15 0 13 -6 11 -20 -6z"/>
<path d="M5530 2779 c0 -7 -3 -9 -7 -6 -4 4 -19 -5 -34 -19 -28 -26 -30 -44
-6 -44 7 0 6 4 -3 10 -14 9 -12 11 20 14 9 0 14 9 12 20 -2 10 1 16 5 13 5 -3
15 -2 22 2 9 6 10 11 2 15 -6 4 -11 2 -11 -5z"/>
<path d="M4417 2773 c-11 -17 13 -28 26 -13 9 10 9 11 0 6 -6 -3 -13 -1 -15 6
-3 9 -6 9 -11 1z"/>
<path d="M3070 2762 c0 -4 10 -13 23 -21 22 -14 22 -14 3 8 -20 22 -26 25 -26
13z"/>
<path d="M3110 2759 c0 -5 5 -7 10 -4 6 3 10 8 10 11 0 2 -4 4 -10 4 -5 0 -10
-5 -10 -11z"/>
<path d="M5557 2755 c-4 -8 -3 -16 1 -19 4 -3 9 4 9 15 2 23 -3 25 -10 4z"/>
<path d="M3031 2739 c-19 -15 -26 -17 -32 -7 -6 9 -9 8 -9 -6 0 -13 5 -16 18
-11 9 4 25 8 36 11 23 4 34 14 17 14 -7 0 -9 5 -6 10 9 15 3 12 -24 -11z"/>
<path d="M5400 2756 c0 -2 7 -9 15 -16 9 -7 15 -8 15 -2 0 5 -7 12 -15 16 -8
3 -15 4 -15 2z"/>
<path d="M1890 2739 c0 -5 5 -7 10 -4 6 3 10 8 10 11 0 2 -4 4 -10 4 -5 0 -10
-5 -10 -11z"/>
<path d="M5436 2723 c-6 -14 -5 -15 5 -6 7 7 10 15 7 18 -3 3 -9 -2 -12 -12z"/>
<path d="M1327 2707 c-4 -10 2 -13 20 -11 14 1 28 6 31 10 4 4 0 5 -9 1 -9 -3
-21 -1 -26 4 -7 7 -12 6 -16 -4z"/>
<path d="M5348 2708 c9 -9 9 -15 -1 -27 -11 -14 -10 -14 6 -2 13 10 15 17 6
27 -6 8 -14 14 -17 14 -3 0 -1 -5 6 -12z"/>
<path d="M3890 2699 c0 -5 5 -7 10 -4 6 3 10 8 10 11 0 2 -4 4 -10 4 -5 0 -10
-5 -10 -11z"/>
<path d="M4365 2700 c-3 -6 1 -7 9 -4 18 7 21 14 7 14 -6 0 -13 -4 -16 -10z"/>
<path d="M1810 2691 c0 -7 -4 -10 -9 -7 -4 3 -16 -3 -26 -14 -10 -11 -14 -20
-9 -20 5 0 3 -4 -4 -9 -10 -6 -10 -10 2 -20 11 -9 16 -9 22 0 4 7 3 9 -4 5 -7
-4 -10 2 -9 14 1 12 7 18 14 16 8 -3 10 1 6 11 -4 10 -2 14 5 9 12 -7 28 12
18 21 -3 4 -6 1 -6 -6z"/>
<path d="M1079 2683 c0 -5 -2 -16 -4 -26 -2 -11 -1 -16 3 -13 8 8 14 46 7 46
-3 0 -5 -3 -6 -7z"/>
<path d="M2190 2680 c0 -5 5 -10 10 -10 6 0 10 5 10 10 0 6 -4 10 -10 10 -5 0
-10 -4 -10 -10z"/>
<path d="M4167 2662 c-13 -12 -17 -13 -17 -3 0 10 -3 11 -13 2 -8 -6 -18 -7
-23 -3 -4 4 -2 -1 5 -10 15 -20 26 -24 15 -6 -5 7 -2 9 8 5 9 -3 21 0 28 6 10
10 12 7 7 -11 -6 -27 9 -20 16 8 7 27 -6 33 -26 12z"/>
<path d="M5304 2664 c-18 -14 -18 -15 4 -4 12 6 22 13 22 15 0 8 -5 6 -26 -11z"/>
<path d="M2142 2654 c10 -10 20 -16 22 -13 3 3 -5 11 -17 18 -21 13 -21 12 -5
-5z"/>
<path d="M4275 2660 c-3 -5 -1 -10 4 -10 6 0 11 5 11 10 0 6 -2 10 -4 10 -3 0
-8 -4 -11 -10z"/>
<path d="M3993 2645 c0 -7 6 -12 13 -12 7 0 10 5 7 10 -4 6 1 8 11 4 9 -4 15
-3 11 2 -8 13 -42 9 -42 -4z"/>
<path d="M1479 2458 c-7 -29 -3 -39 18 -54 15 -9 22 -11 18 -3 -6 9 -2 11 12
7 12 -3 20 0 20 8 0 7 -4 11 -7 9 -4 -3 -19 5 -34 16 -14 11 -26 19 -27 17z
m16 -17 c3 -5 2 -12 -3 -15 -5 -3 -9 1 -9 9 0 17 3 19 12 6z"/>
<path d="M1483 2383 c0 -38 -3 -42 -30 -38 -16 2 -22 2 -15 -1 6 -3 9 -11 5
-17 -5 -8 -2 -8 9 0 8 7 17 10 20 8 3 -3 12 5 21 19 14 20 14 26 3 35 -10 9
-13 7 -13 -6z"/>
<path d="M246 2315 c-6 -17 16 -31 33 -21 13 9 2 36 -14 36 -7 0 -16 -7 -19
-15z"/>
<path d="M1315 2280 c-3 -5 -2 -10 4 -10 5 0 13 5 16 10 3 6 2 10 -4 10 -5 0
-13 -4 -16 -10z"/>
<path d="M1185 2120 c-3 -6 1 -7 9 -4 18 7 21 14 7 14 -6 0 -13 -4 -16 -10z"/>
<path d="M1148 2103 c7 -3 16 -2 19 1 4 3 -2 6 -13 5 -11 0 -14 -3 -6 -6z"/>
<path d="M420 2011 c0 -6 4 -13 10 -16 6 -3 7 1 4 9 -7 18 -14 21 -14 7z"/>
<path d="M523 1976 c-3 -6 -2 -8 2 -3 5 4 18 -1 29 -10 15 -14 18 -14 8 -2 -6
9 -10 18 -7 21 3 2 -2 5 -10 5 -9 0 -19 -5 -22 -11z"/>
<path d="M819 1977 c6 -8 7 -18 3 -22 -4 -5 -1 -5 6 -1 10 6 10 11 1 22 -6 8
-14 14 -16 14 -3 0 0 -6 6 -13z"/>
<path d="M896 1982 c-3 -5 1 -9 9 -9 8 0 12 4 9 9 -3 4 -7 8 -9 8 -2 0 -6 -4
-9 -8z"/>
</g>
</svg>
