<?xml version="1.0" encoding="utf-8"?>
<!-- Generator: Adobe Illustrator 16.0.4, SVG Export Plug-In . SVG Version: 6.00 Build 0)  -->
<!DOCTYPE svg PUBLIC "-//W3C//DTD SVG 1.1//EN" "http://www.w3.org/Graphics/SVG/1.1/DTD/svg11.dtd">
<svg version="1.1" id="Layer_1" xmlns="http://www.w3.org/2000/svg" xmlns:xlink="http://www.w3.org/1999/xlink" x="0px" y="0px"
	 width="40.32px" height="24.94px" viewBox="-3.471 48.084 40.32 24.94" enable-background="new -3.471 48.084 40.32 24.94"
	 xml:space="preserve">
<g>
	<path fill="#231F20" d="M3.315,49.158H32.06c0.2,0,0.384,0.023,0.569,0.059l-16.098,9.255L2.926,49.199
		C3.054,49.181,3.183,49.158,3.315,49.158L3.315,49.158z"/>
	<path fill="#231F20" d="M30.058,71.95H1.316c-0.862,0-1.639-0.35-2.206-0.909c-0.139-0.138-0.261-0.289-0.372-0.453
		c-0.003-0.002-0.011-0.009-0.014-0.011c-0.1-0.155-0.188-0.319-0.262-0.488c-0.007-0.017-0.021-0.029-0.027-0.047
		c-0.068-0.163-0.118-0.328-0.161-0.5c-0.003-0.032-0.02-0.059-0.025-0.089c-0.041-0.207-0.064-0.418-0.064-0.636l1.065-8.803
		l0.099-0.805l0.837-6.922c0-0.195,0.023-0.389,0.057-0.575c0.007-0.021,0.007-0.043,0.012-0.063c0,0.002,0,0.007,0.002,0.007
		c0.091-0.426,0.263-0.824,0.507-1.167V52L15.6,62.052c0.018,0.013,0.041,0.021,0.059,0.032c0.025,0.015,0.044,0.024,0.069,0.038
		c0.114,0.059,0.239,0.109,0.357,0.138c0.016,0.006,0.031,0.01,0.042,0.013c0.135,0.028,0.273,0.049,0.405,0.049h0.004
		c0.135,0,0.274-0.021,0.408-0.049c0.011-0.003,0.021-0.007,0.04-0.013c0.119-0.028,0.242-0.076,0.356-0.138
		c0.025-0.014,0.047-0.023,0.068-0.038c0.02-0.011,0.042-0.016,0.061-0.032l17.679-10.206c0.02,0.147,0.045,0.292,0.045,0.441
		L33.196,68.82C33.192,70.547,31.791,71.95,30.058,71.95L30.058,71.95z"/>
</g>
</svg>
