<?xml version="1.0" encoding="utf-8"?>
<!-- Generator: Adobe Illustrator 16.0.4, SVG Export Plug-In . SVG Version: 6.00 Build 0)  -->
<!DOCTYPE svg PUBLIC "-//W3C//DTD SVG 1.1//EN" "http://www.w3.org/Graphics/SVG/1.1/DTD/svg11.dtd">
<svg version="1.1" id="Layer_1" xmlns="http://www.w3.org/2000/svg" xmlns:xlink="http://www.w3.org/1999/xlink" x="0px" y="0px"
	 width="32.4px" height="32.4px" viewBox="0 0 32.4 32.4" enable-background="new 0 0 32.4 32.4" xml:space="preserve">
<g>
	<g>
		<circle fill="#FFFFFF" cx="16.199" cy="16.202" r="15.637"/>
	</g>
	<g>
		<path fill="#C35228" d="M16.229,13.139h9.625c0.062,0,0.129,0.008,0.189,0.021l-5.391,3.098l-4.557-3.104
			C16.141,13.147,16.184,13.139,16.229,13.139L16.229,13.139z"/>
		<path fill="#C35228" d="M8.941,20.465v-1.338h4.295l-0.053,0.436l-0.012,0.08v0.08c0,0.26,0.043,0.51,0.119,0.742H8.941z"/>
		<polygon fill="#C35228" points="13.391,17.844 7.49,17.844 7.49,16.506 13.553,16.506 		"/>
		<path fill="#C35228" d="M13.844,14.09l-0.082,0.688H6.19v-1.338h7.773C13.896,13.645,13.854,13.864,13.844,14.09L13.844,14.09z"/>
		<path fill="#C35228" d="M25.184,20.77h-9.623c-0.289,0-0.549-0.117-0.738-0.307c-0.047-0.045-0.088-0.096-0.127-0.148
			l-0.002-0.004c-0.035-0.055-0.064-0.107-0.09-0.164c-0.002-0.006-0.006-0.01-0.008-0.018c-0.023-0.053-0.039-0.107-0.055-0.168
			c-0.002-0.01-0.008-0.02-0.01-0.027c-0.014-0.068-0.021-0.141-0.021-0.213l0.355-2.947l0.033-0.271l0.279-2.314
			c0-0.066,0.008-0.131,0.02-0.191c0.002-0.01,0.002-0.016,0.002-0.016c0.002-0.006,0.002-0.006,0.004-0.006
			c0.029-0.145,0.086-0.275,0.168-0.393v0.506l4.967,3.367c0.01,0.004,0.016,0.006,0.021,0.01c0.008,0.008,0.014,0.01,0.021,0.016
			c0.039,0.02,0.08,0.035,0.121,0.045c0.004,0.002,0.01,0.004,0.016,0.004c0.045,0.01,0.09,0.018,0.135,0.018h0.002
			c0.045,0,0.092-0.008,0.137-0.018c0.004,0,0.008-0.002,0.014-0.004c0.041-0.01,0.082-0.025,0.119-0.045
			c0.01-0.006,0.016-0.008,0.021-0.016c0.008-0.004,0.014-0.006,0.021-0.01l5.918-3.418c0.008,0.049,0.018,0.1,0.018,0.148
			l-0.67,5.535C26.232,20.301,25.762,20.77,25.184,20.77L25.184,20.77z"/>
		<path fill="#C35228" d="M25.184,20.77"/>
	</g>
</g>
</svg>
