<?xml version="1.0" encoding="utf-8"?>
<!-- Generator: Adobe Illustrator 16.0.4, SVG Export Plug-In . SVG Version: 6.00 Build 0)  -->
<!DOCTYPE svg PUBLIC "-//W3C//DTD SVG 1.1//EN" "http://www.w3.org/Graphics/SVG/1.1/DTD/svg11.dtd">
<svg version="1.1" id="Layer_1" xmlns="http://www.w3.org/2000/svg" xmlns:xlink="http://www.w3.org/1999/xlink" x="0px" y="0px"
	 width="20.16px" height="20.16px" viewBox="7.926 64.878 20.16 20.16" enable-background="new 7.926 64.878 20.16 20.16"
	 xml:space="preserve">
<g>
	<g>
		<path fill="#231F20" d="M22.695,72.614c0-3.883-3.148-7.031-7.033-7.031c-3.881,0-7.031,3.148-7.031,7.031s3.15,7.031,7.031,7.031
			C19.547,79.645,22.695,76.497,22.695,72.614L22.695,72.614z M15.662,77.887c-2.906,0-5.271-2.365-5.271-5.273
			s2.365-5.274,5.271-5.274s5.275,2.366,5.275,5.274S18.568,77.887,15.662,77.887L15.662,77.887z M15.662,77.887"/>
		<path fill="#231F20" d="M26.865,81.334l-4.303-4.302c-0.639,0.996-1.488,1.842-2.48,2.483l4.301,4.302
			c0.684,0.688,1.797,0.688,2.482,0C27.554,83.132,27.554,82.019,26.865,81.334L26.865,81.334z M26.865,81.334"/>
	</g>
</g>
</svg>
