<?xml version="1.0" encoding="utf-8"?>
<!-- Generator: Adobe Illustrator 21.0.2, SVG Export Plug-In . SVG Version: 6.00 Build 0)  -->
<svg version="1.1" id="Layer_1" xmlns="http://www.w3.org/2000/svg" xmlns:xlink="http://www.w3.org/1999/xlink" x="0px" y="0px"
	 viewBox="0 0 20.2 20.2" style="enable-background:new 0 0 20.2 20.2;" xml:space="preserve">
<style type="text/css">
	.st0{fill:#FFFFFF;}
</style>
<g>
	<g>
		<path class="st0" d="M14.8,7.7c0-3.9-3.1-7-7-7c-3.9,0-7,3.1-7,7s3.2,7,7,7C11.6,14.8,14.8,11.6,14.8,7.7L14.8,7.7z M7.7,13
			c-2.9,0-5.3-2.4-5.3-5.3s2.4-5.3,5.3-5.3S13,4.8,13,7.7S10.6,13,7.7,13L7.7,13z"/>
		<path class="st0" d="M18.9,16.5l-4.3-4.3c-0.6,1-1.5,1.8-2.5,2.5l4.3,4.3c0.7,0.7,1.8,0.7,2.5,0C19.6,18.3,19.6,17.1,18.9,16.5
			L18.9,16.5z"/>
	</g>
</g>
</svg>
